<svg xmlns="http://www.w3.org/2000/svg" xmlns:xlink="http://www.w3.org/1999/xlink" width="1920" zoomAndPan="magnify" viewBox="0 0 1440 809.999993" height="1080" preserveAspectRatio="xMidYMid meet" version="1.0"><defs><clipPath id="id1"><path d="M 1376 352 L 1439.765625 352 L 1439.765625 810 L 1376 810 Z M 1376 352 " clip-rule="nonzero"/></clipPath><clipPath id="id2"><path d="M 1321 322.6875 L 1372 322.6875 L 1372 379 L 1321 379 Z M 1321 322.6875 " clip-rule="nonzero"/></clipPath><clipPath id="id3"><path d="M 0 302 L 169.710938 302 L 169.710938 625 L 0 625 Z M 0 302 " clip-rule="nonzero"/></clipPath><clipPath id="id4"><path d="M 120 43 L 136.480469 43 L 136.480469 59 L 120 59 Z M 120 43 " clip-rule="nonzero"/></clipPath></defs><rect x="-144" width="1728" fill="#ffffff" y="-80.999999" height="971.999992" fill-opacity="1"/><rect x="-144" width="1728" fill="#ffffff" y="-80.999999" height="971.999992" fill-opacity="1"/><rect x="-144" width="1728" fill="#ffffff" y="-80.999999" height="971.999992" fill-opacity="1"/><rect x="-144" width="1728" fill="#ffffff" y="-80.999999" height="971.999992" fill-opacity="1"/><path fill="#43425d" d="M 223.921875 732.246094 C 223.921875 738.152344 224.464844 744.191406 223.785156 750.027344 C 223.039062 756.953125 221.820312 763.875 219.71875 770.457031 C 216.125 781.722656 212.460938 793.125 207.445312 803.78125 C 203.308594 812.535156 197.207031 820.476562 191.714844 828.550781 C 184.527344 839.070312 176.253906 848.640625 166.898438 857.328125 C 154.558594 868.796875 140.726562 878.296875 126.6875 887.527344 C 115.976562 894.585938 104.246094 898.863281 91.769531 902.121094 C 71.496094 907.414062 51.15625 908.5 30.40625 906.191406 C 10.40625 903.953125 -7.292969 895.875 -24.175781 885.558594 C -34.683594 879.179688 -44.515625 871.851562 -53.601562 863.640625 C -63.027344 855.15625 -71.910156 846.0625 -78.691406 835.136719 C -83.574219 827.332031 -88.859375 819.796875 -93.8125 812.058594 C -99.84375 802.695312 -103.03125 791.972656 -107.371094 781.859375 C -113.203125 768.351562 -114.421875 754.238281 -114.152344 739.78125 C -114.015625 731.839844 -114.355469 723.832031 -113.675781 715.960938 C -112.863281 706.117188 -109.542969 696.957031 -105.132812 687.996094 C -93.675781 664.652344 -78.082031 644.496094 -59.773438 626.375 C -55.164062 621.828125 -49.601562 618.027344 -44.042969 614.632812 C -29.125 605.605469 -13.800781 597.257812 2.8125 591.761719 C 17.929688 586.738281 33.457031 584.5 49.390625 585.722656 C 57.800781 586.398438 66.207031 586.941406 74.480469 588.367188 C 83.769531 589.929688 92.921875 592.167969 102.007812 594.476562 C 107.976562 595.96875 113.738281 597.9375 119.636719 599.769531 C 127.636719 602.28125 135.640625 604.722656 143.574219 607.371094 C 155.097656 611.238281 165.675781 616.941406 175.035156 624.8125 C 177.882812 627.1875 180.660156 629.5625 183.710938 631.667969 C 196.324219 640.492188 204.867188 652.707031 212.257812 665.738281 C 214.835938 670.285156 216.460938 675.511719 217.820312 680.667969 C 219.851562 688.132812 221.820312 695.734375 222.835938 703.402344 C 224.054688 712.90625 224.261719 722.542969 224.9375 732.113281 C 224.464844 732.246094 224.191406 732.246094 223.921875 732.246094 Z M 223.921875 732.246094 " fill-opacity="1" fill-rule="nonzero"/><path fill="#43425d" d="M 981.320312 810.101562 L 918.796875 810.101562 L 918.796875 689.792969 L 981.320312 689.792969 L 981.320312 810.101562 " fill-opacity="1" fill-rule="nonzero"/><path fill="#a5c3de" d="M 808.039062 560.953125 C 801.527344 576.308594 808.691406 594.027344 824.03125 600.542969 C 839.371094 607.046875 857.082031 599.890625 863.589844 584.527344 C 870.097656 569.175781 862.9375 551.453125 847.597656 544.949219 C 832.253906 538.4375 814.539062 545.601562 808.039062 560.953125 " fill-opacity="1" fill-rule="nonzero"/><path fill="#a5c3de" d="M 922.277344 629.902344 C 915.777344 645.246094 922.9375 662.976562 938.273438 669.488281 C 953.621094 675.992188 971.328125 668.828125 977.839844 653.476562 C 984.347656 638.121094 977.179688 620.402344 961.835938 613.886719 C 946.496094 607.375 928.789062 614.539062 922.277344 629.902344 " fill-opacity="1" fill-rule="nonzero"/><path fill="#a5c3de" d="M 1036.527344 519.152344 C 1030.019531 534.503906 1037.1875 552.226562 1052.53125 558.742188 C 1067.871094 565.253906 1085.578125 558.078125 1092.085938 542.734375 C 1098.597656 527.375 1091.425781 509.652344 1076.085938 503.140625 C 1060.746094 496.632812 1043.035156 503.792969 1036.527344 519.152344 " fill-opacity="1" fill-rule="nonzero"/><path fill="#a5c3de" d="M 1150.777344 547.902344 C 1144.269531 563.261719 1151.429688 580.984375 1166.769531 587.496094 C 1182.121094 594.011719 1199.828125 586.835938 1206.335938 571.484375 C 1212.835938 556.132812 1205.675781 538.410156 1190.335938 531.898438 C 1174.992188 525.382812 1157.285156 532.558594 1150.777344 547.902344 " fill-opacity="1" fill-rule="nonzero"/><path fill="#a5c3de" d="M 1260.714844 366.613281 C 1254.214844 381.964844 1261.375 399.695312 1276.714844 406.199219 C 1292.054688 412.714844 1309.765625 405.546875 1316.273438 390.195312 C 1322.78125 374.839844 1315.613281 357.121094 1300.28125 350.605469 C 1284.9375 344.09375 1267.222656 351.257812 1260.714844 366.613281 " fill-opacity="1" fill-rule="nonzero"/><path fill="#43425d" d="M 867.070312 810.101562 L 804.554688 810.101562 L 804.554688 626.3125 L 867.070312 626.3125 L 867.070312 810.101562 " fill-opacity="1" fill-rule="nonzero"/><path fill="#43425d" d="M 1095.570312 810.101562 L 1033.046875 810.101562 L 1033.046875 572.746094 L 1095.570312 572.746094 L 1095.570312 810.101562 " fill-opacity="1" fill-rule="nonzero"/><path fill="#43425d" d="M 1209.820312 810.101562 L 1147.296875 810.101562 L 1147.296875 626.3125 L 1209.820312 626.3125 L 1209.820312 810.101562 " fill-opacity="1" fill-rule="nonzero"/><path fill="#43425d" d="M 1325.140625 810.101562 L 1262.625 810.101562 L 1262.625 444.886719 L 1325.140625 444.886719 L 1325.140625 810.101562 " fill-opacity="1" fill-rule="nonzero"/><g clip-path="url(#id1)"><path fill="#43425d" d="M 1439.390625 810.101562 L 1376.867188 810.101562 L 1376.867188 352.511719 L 1439.390625 352.511719 L 1439.390625 810.101562 " fill-opacity="1" fill-rule="nonzero"/></g><path fill="#a5c3de" d="M 1346.476562 335.65625 L 1278.996094 366.113281 L 1174.589844 549 L 1061.707031 508.769531 L 953.03125 630.554688 L 835.417969 562.40625 L 753.164062 618.804688 L 753.164062 640.011719 L 836.207031 583.070312 L 956.589844 652.824219 L 1066.910156 529.195312 L 1182.515625 570.394531 L 1291.351562 379.722656 L 1353.660156 351.609375 L 1346.476562 335.65625 " fill-opacity="1" fill-rule="nonzero"/><g clip-path="url(#id2)"><path fill="#a5c3de" d="M 1340.414062 378.625 L 1346.234375 345.3125 L 1321.347656 322.585938 L 1371.300781 336.824219 L 1340.414062 378.625 " fill-opacity="1" fill-rule="nonzero"/></g><g clip-path="url(#id3)"><path fill="#a5c3de" d="M 168.5 449.183594 C 168.5 455.085938 169.042969 461.128906 168.363281 466.964844 C 167.617188 473.886719 166.398438 480.808594 164.296875 487.390625 C 160.703125 498.660156 157.042969 510.058594 152.023438 520.714844 C 147.886719 529.46875 141.785156 537.410156 136.292969 545.488281 C 129.105469 556.007812 120.832031 565.574219 111.476562 574.261719 C 99.136719 585.734375 85.304688 595.234375 71.269531 604.464844 C 60.554688 611.523438 48.824219 615.796875 36.347656 619.054688 C 16.074219 624.347656 -4.265625 625.433594 -25.011719 623.128906 C -45.015625 620.886719 -62.710938 612.8125 -79.597656 602.496094 C -90.105469 596.117188 -99.9375 588.785156 -109.023438 580.574219 C -118.449219 572.089844 -127.332031 562.996094 -134.109375 552.070312 C -138.992188 544.265625 -144.28125 536.730469 -149.230469 528.996094 C -155.265625 519.628906 -158.453125 508.90625 -162.792969 498.792969 C -168.625 485.289062 -169.84375 471.171875 -169.574219 456.714844 C -169.4375 448.777344 -169.777344 440.765625 -169.097656 432.894531 C -168.285156 423.054688 -164.960938 413.890625 -160.554688 404.933594 C -149.097656 381.585938 -133.5 361.429688 -115.195312 343.308594 C -110.582031 338.761719 -105.023438 334.960938 -99.460938 331.570312 C -84.546875 322.542969 -69.222656 314.195312 -52.609375 308.695312 C -37.488281 303.675781 -21.960938 301.433594 -6.027344 302.65625 C 2.378906 303.335938 10.789062 303.878906 19.058594 305.304688 C 28.347656 306.863281 37.503906 309.105469 46.589844 311.410156 C 52.554688 312.90625 58.316406 314.875 64.21875 316.707031 C 72.21875 319.214844 80.21875 321.660156 88.152344 324.308594 C 99.679688 328.175781 110.257812 333.875 119.613281 341.75 C 122.460938 344.125 125.242188 346.5 128.292969 348.601562 C 140.902344 357.425781 149.449219 369.640625 156.839844 382.671875 C 159.414062 387.21875 161.042969 392.445312 162.398438 397.605469 C 164.433594 405.070312 166.398438 412.671875 167.414062 420.339844 C 168.636719 429.839844 168.839844 439.476562 169.515625 449.046875 C 169.042969 449.183594 168.773438 449.183594 168.5 449.183594 Z M 168.5 449.183594 " fill-opacity="1" fill-rule="nonzero"/></g><path fill="#ffffff" d="M 122.355469 55.144531 C 116.761719 60.101562 110.648438 65.574219 105.054688 70.527344 C 105.054688 70.53125 105.058594 70.539062 105.0625 70.542969 C 105.117188 70.621094 105.171875 70.707031 105.222656 70.804688 C 105.277344 70.898438 105.316406 70.992188 105.351562 71.085938 C 105.769531 72.007812 106.011719 73 106.082031 74.003906 C 112.152344 68.628906 118.738281 62.734375 124.808594 57.359375 C 123.851562 56.792969 123.011719 56.039062 122.355469 55.144531 Z M 122.355469 55.144531 " fill-opacity="1" fill-rule="nonzero"/><path fill="#ffffff" d="M 76.601562 55.175781 C 76.515625 56.398438 76.136719 57.574219 75.535156 58.617188 C 80.621094 63.121094 86.222656 68.140625 91.3125 72.644531 C 91.574219 71.527344 92.070312 70.46875 92.792969 69.570312 C 87.566406 64.945312 81.828125 59.800781 76.601562 55.175781 Z M 76.601562 55.175781 " fill-opacity="1" fill-rule="nonzero"/><path fill="#ffffff" d="M 42.757812 72.902344 C 41.476562 71.929688 39.875 71.328125 38.058594 71.230469 C 33.632812 70.992188 30.433594 75.011719 30.214844 79.105469 C 29.976562 83.550781 33.980469 86.761719 38.058594 86.980469 C 42.304688 87.210938 45.414062 83.515625 45.851562 79.597656 C 45.886719 79.449219 45.910156 79.289062 45.898438 79.105469 C 45.910156 78.929688 45.886719 78.769531 45.851562 78.625 C 45.730469 77.441406 45.402344 76.351562 44.890625 75.402344 C 50.84375 70.128906 57.058594 64.597656 63.011719 59.324219 C 62.3125 58.414062 61.816406 57.351562 61.597656 56.191406 C 55.402344 61.671875 48.953125 67.417969 42.757812 72.902344 Z M 33.496094 79.105469 C 33.179688 73.199219 42.300781 73.230469 42.617188 79.105469 C 42.300781 85.007812 33.8125 85.007812 33.496094 79.105469 Z M 33.496094 79.105469 " fill-opacity="1" fill-rule="nonzero"/><path fill="#ffffff" d="M 76.820312 53.945312 C 76.8125 53.882812 76.804688 53.824219 76.792969 53.765625 C 76.785156 53.679688 76.777344 53.597656 76.761719 53.507812 C 76.019531 49.542969 72.367188 46.753906 68.363281 47.089844 C 64.292969 47.433594 61.332031 50.914062 61.222656 54.925781 C 61.207031 55.449219 61.25 55.957031 61.34375 56.449219 C 61.558594 57.609375 62.054688 58.671875 62.753906 59.582031 C 64.296875 61.601562 66.820312 62.871094 69.4375 62.792969 C 72.167969 62.710938 74.5 61.105469 75.792969 58.875 C 76.394531 57.835938 76.773438 56.65625 76.859375 55.433594 C 76.894531 54.941406 76.882812 54.445312 76.820312 53.945312 Z M 69.4375 59.496094 C 66.722656 59.738281 64.636719 57.542969 64.503906 54.925781 C 64.386719 52.574219 66.316406 50.800781 68.460938 50.375 C 70.96875 49.878906 73.050781 51.933594 73.558594 54.207031 C 73.769531 56.820312 72.203125 59.246094 69.4375 59.496094 Z M 69.4375 59.496094 " fill-opacity="1" fill-rule="nonzero"/><path fill="#ffffff" d="M 105.480469 70.542969 C 105.429688 70.445312 105.375 70.363281 105.320312 70.28125 C 105.316406 70.277344 105.3125 70.273438 105.3125 70.269531 C 103.035156 66.65625 98.511719 65.492188 94.722656 67.5 C 93.847656 67.964844 93.117188 68.585938 92.535156 69.3125 C 91.8125 70.210938 91.316406 71.269531 91.054688 72.386719 C 90.582031 74.386719 90.851562 76.585938 91.894531 78.414062 C 93.96875 82.042969 98.519531 83.019531 102.140625 81.371094 C 105.15625 80.003906 106.5625 76.835938 106.339844 73.746094 C 106.269531 72.742188 106.027344 71.746094 105.613281 70.828125 C 105.574219 70.734375 105.535156 70.636719 105.480469 70.542969 Z M 100.785156 78.367188 C 98.835938 79.527344 96.203125 78.824219 94.910156 77.027344 C 93.40625 74.945312 93.976562 72.011719 96.050781 70.550781 C 98.324219 68.953125 101.316406 69.914062 102.644531 72.207031 C 103.78125 74.492188 102.933594 77.089844 100.785156 78.367188 Z M 100.785156 78.367188 " fill-opacity="1" fill-rule="nonzero"/><g clip-path="url(#id4)"><path fill="#ffffff" d="M 136.355469 50.542969 C 136.238281 46.40625 132.761719 43.277344 128.792969 43.035156 C 128.707031 43.023438 128.617188 43.019531 128.523438 43.019531 C 128.425781 43.019531 128.339844 43.023438 128.253906 43.035156 C 124.128906 43.277344 121.035156 46.40625 120.6875 50.542969 C 120.535156 52.355469 121.097656 54.039062 122.097656 55.402344 C 122.75 56.296875 123.59375 57.050781 124.550781 57.621094 C 125.941406 58.445312 127.574219 58.875 129.21875 58.734375 C 133.394531 58.382812 136.46875 54.683594 136.355469 50.542969 Z M 129.125 55.449219 C 126.203125 56.027344 123.898438 53.238281 123.972656 50.542969 C 124.039062 48.132812 126.257812 46.382812 128.523438 46.316406 C 130.886719 46.382812 132.871094 48.136719 133.070312 50.542969 C 133.28125 53.039062 131.460938 54.984375 129.125 55.449219 Z M 129.125 55.449219 " fill-opacity="1" fill-rule="nonzero"/></g></svg>