<svg xmlns="http://www.w3.org/2000/svg" xmlns:xlink="http://www.w3.org/1999/xlink" width="1920" zoomAndPan="magnify" viewBox="0 0 1440 809.999993" height="1080" preserveAspectRatio="xMidYMid meet" version="1.0"><defs><clipPath id="id1"><path d="M 0 269 L 55.574219 269 L 55.574219 476 L 0 476 Z M 0 269 " clip-rule="nonzero"/></clipPath><clipPath id="id2"><path d="M 0 87.066406 L 20 87.066406 L 20 294.769531 L 0 294.769531 Z M 0 87.066406 " clip-rule="nonzero"/></clipPath><clipPath id="id3"><path d="M 590 180.484375 L 719.757812 180.484375 L 719.757812 810 L 590 810 Z M 590 180.484375 " clip-rule="nonzero"/></clipPath><clipPath id="id4"><path d="M 590 281 L 719.757812 281 L 719.757812 810 L 590 810 Z M 590 281 " clip-rule="nonzero"/></clipPath><clipPath id="id5"><path d="M 590 533 L 719.757812 533 L 719.757812 810 L 590 810 Z M 590 533 " clip-rule="nonzero"/></clipPath></defs><rect x="-144" width="1728" fill="#ffffff" y="-80.999999" height="971.999992" fill-opacity="1"/><rect x="-144" width="1728" fill="#ffffff" y="-80.999999" height="971.999992" fill-opacity="1"/><rect x="-144" width="1728" fill="#ffffff" y="-80.999999" height="971.999992" fill-opacity="1"/><rect x="-144" width="1728" fill="#ffffff" y="-80.999999" height="971.999992" fill-opacity="1"/><g clip-path="url(#id1)"><path fill="#43425d" d="M 54.800781 363.238281 C 54.800781 367.023438 55.148438 370.898438 54.710938 374.636719 C 54.234375 379.078125 53.453125 383.515625 52.105469 387.734375 C 49.800781 394.957031 47.453125 402.265625 44.238281 409.097656 C 41.585938 414.707031 37.671875 419.796875 34.152344 424.976562 C 29.546875 431.71875 24.242188 437.855469 18.242188 443.421875 C 10.332031 450.773438 1.464844 456.867188 -7.53125 462.78125 C -14.398438 467.308594 -21.917969 470.046875 -29.917969 472.136719 C -42.914062 475.53125 -55.953125 476.226562 -69.253906 474.746094 C -82.074219 473.3125 -93.421875 468.132812 -104.242188 461.519531 C -110.980469 457.429688 -117.28125 452.734375 -123.109375 447.46875 C -129.148438 442.03125 -134.84375 436.199219 -139.191406 429.195312 C -142.320312 424.191406 -145.710938 419.363281 -148.882812 414.402344 C -152.75 408.398438 -154.792969 401.527344 -157.574219 395.042969 C -161.3125 386.386719 -162.097656 377.335938 -161.921875 368.070312 C -161.835938 362.980469 -162.054688 357.84375 -161.617188 352.796875 C -161.097656 346.488281 -158.96875 340.617188 -156.140625 334.875 C -148.796875 319.90625 -138.796875 306.984375 -127.0625 295.371094 C -124.105469 292.453125 -120.542969 290.019531 -116.980469 287.84375 C -107.417969 282.058594 -97.59375 276.707031 -86.945312 273.179688 C -77.25 269.960938 -67.296875 268.527344 -57.082031 269.308594 C -51.691406 269.746094 -46.304688 270.09375 -41 271.007812 C -35.046875 272.007812 -29.175781 273.441406 -23.351562 274.921875 C -19.527344 275.878906 -15.832031 277.140625 -12.050781 278.316406 C -6.921875 279.925781 -1.792969 281.492188 3.292969 283.1875 C 10.679688 285.667969 17.460938 289.324219 23.460938 294.367188 C 25.285156 295.890625 27.066406 297.414062 29.023438 298.761719 C 37.109375 304.417969 42.585938 312.25 47.324219 320.605469 C 48.972656 323.519531 50.019531 326.867188 50.886719 330.175781 C 52.191406 334.960938 53.453125 339.832031 54.101562 344.75 C 54.886719 350.839844 55.015625 357.019531 55.449219 363.152344 C 55.148438 363.238281 54.972656 363.238281 54.800781 363.238281 Z M 54.800781 363.238281 " fill-opacity="1" fill-rule="nonzero"/></g><g clip-path="url(#id2)"><path fill="#a5c3de" d="M 19.273438 181.78125 C 19.273438 185.566406 19.621094 189.4375 19.183594 193.179688 C 18.707031 197.617188 17.925781 202.054688 16.578125 206.277344 C 14.273438 213.496094 11.925781 220.808594 8.710938 227.636719 C 6.058594 233.25 2.144531 238.339844 -1.375 243.515625 C -5.980469 250.261719 -11.285156 256.394531 -17.285156 261.964844 C -25.195312 269.316406 -34.0625 275.40625 -43.058594 281.324219 C -49.925781 285.847656 -57.445312 288.589844 -65.445312 290.679688 C -78.441406 294.070312 -91.480469 294.769531 -104.78125 293.289062 C -117.601562 291.851562 -128.949219 286.675781 -139.769531 280.0625 C -146.507812 275.972656 -152.808594 271.273438 -158.636719 266.011719 C -164.675781 260.570312 -170.371094 254.742188 -174.71875 247.738281 C -177.847656 242.734375 -181.238281 237.90625 -184.410156 232.945312 C -188.277344 226.941406 -190.320312 220.066406 -193.101562 213.585938 C -196.839844 204.925781 -197.625 195.878906 -197.449219 186.609375 C -197.363281 181.519531 -197.582031 176.386719 -197.144531 171.339844 C -196.625 165.03125 -194.496094 159.15625 -191.667969 153.414062 C -184.324219 138.449219 -174.324219 125.527344 -162.589844 113.910156 C -159.632812 110.996094 -156.070312 108.558594 -152.507812 106.382812 C -142.945312 100.597656 -133.121094 95.246094 -122.472656 91.722656 C -112.777344 88.503906 -102.824219 87.066406 -92.609375 87.851562 C -87.21875 88.285156 -81.832031 88.632812 -76.527344 89.546875 C -70.574219 90.546875 -64.703125 91.984375 -58.878906 93.464844 C -55.054688 94.421875 -51.359375 95.683594 -47.578125 96.855469 C -42.449219 98.464844 -37.320312 100.03125 -32.234375 101.730469 C -24.847656 104.210938 -18.066406 107.863281 -12.066406 112.910156 C -10.242188 114.433594 -8.460938 115.957031 -6.503906 117.304688 C 1.582031 122.960938 7.058594 130.792969 11.796875 139.144531 C 13.445312 142.058594 14.492188 145.410156 15.359375 148.714844 C 16.664062 153.503906 17.925781 158.375 18.578125 163.292969 C 19.359375 169.382812 19.488281 175.558594 19.921875 181.695312 C 19.621094 181.78125 19.445312 181.78125 19.273438 181.78125 Z M 19.273438 181.78125 " fill-opacity="1" fill-rule="nonzero"/></g><path fill="#4b657d" d="M 0.0078125 811.183594 L 0.0078125 695.121094 C -0.0898438 692.308594 0.957031 689.574219 2.910156 687.550781 C 4.867188 685.527344 7.558594 684.386719 10.371094 684.386719 L 119.199219 684.386719 C 122.011719 684.386719 124.703125 685.527344 126.660156 687.550781 C 128.613281 689.574219 129.660156 692.308594 129.5625 695.121094 L 129.5625 811.183594 L 0.0078125 811.183594 " fill-opacity="1" fill-rule="nonzero"/><path fill="#4b657d" d="M 147.558594 811.183594 L 147.558594 569.050781 C 147.558594 563.328125 152.195312 558.683594 157.921875 558.683594 L 266.746094 558.683594 C 272.472656 558.683594 277.113281 563.328125 277.113281 569.050781 L 277.113281 811.183594 L 147.558594 811.183594 " fill-opacity="1" fill-rule="nonzero"/><path fill="#4b657d" d="M 295.105469 811.183594 L 295.105469 442.984375 C 295.105469 440.234375 296.199219 437.597656 298.140625 435.652344 C 300.085938 433.710938 302.722656 432.617188 305.46875 432.617188 L 414.296875 432.617188 C 417.046875 432.617188 419.679688 433.710938 421.625 435.652344 C 423.570312 437.597656 424.660156 440.234375 424.660156 442.984375 L 424.660156 811.183594 L 295.105469 811.183594 " fill-opacity="1" fill-rule="nonzero"/><path fill="#4b657d" d="M 442.65625 811.183594 L 442.65625 316.917969 C 442.65625 311.191406 447.292969 306.550781 453.019531 306.550781 L 561.84375 306.550781 C 567.570312 306.550781 572.210938 311.191406 572.210938 316.917969 L 572.210938 811.183594 L 442.65625 811.183594 " fill-opacity="1" fill-rule="nonzero"/><g clip-path="url(#id3)"><path fill="#4b657d" d="M 590.203125 811.183594 L 590.203125 190.851562 C 590.203125 185.125 594.84375 180.484375 600.566406 180.484375 L 709.394531 180.484375 C 715.117188 180.484375 719.757812 185.125 719.757812 190.851562 L 719.757812 811.183594 L 590.203125 811.183594 " fill-opacity="1" fill-rule="nonzero"/></g><path fill="#5e8dab" d="M 0.0078125 747.785156 L 129.5625 747.785156 L 129.5625 811.183594 L 0.0078125 811.183594 L 0.0078125 747.785156 " fill-opacity="1" fill-rule="nonzero"/><path fill="#5e8dab" d="M 147.558594 609.183594 L 277.113281 609.183594 L 277.113281 811.183594 L 147.558594 811.183594 L 147.558594 609.183594 " fill-opacity="1" fill-rule="nonzero"/><path fill="#5e8dab" d="M 295.105469 495.710938 L 424.660156 495.710938 L 424.660156 811.183594 L 295.105469 811.183594 L 295.105469 495.710938 " fill-opacity="1" fill-rule="nonzero"/><path fill="#5e8dab" d="M 442.65625 407.476562 L 572.210938 407.476562 L 572.210938 811.183594 L 442.65625 811.183594 L 442.65625 407.476562 " fill-opacity="1" fill-rule="nonzero"/><g clip-path="url(#id4)"><path fill="#5e8dab" d="M 590.203125 281.394531 L 719.757812 281.394531 L 719.757812 811.183594 L 590.203125 811.183594 L 590.203125 281.394531 " fill-opacity="1" fill-rule="nonzero"/></g><path fill="#a5c3de" d="M 147.558594 710.183594 L 277.113281 710.183594 L 277.113281 811.183594 L 147.558594 811.183594 L 147.558594 710.183594 " fill-opacity="1" fill-rule="nonzero"/><path fill="#a5c3de" d="M 295.105469 621.902344 L 424.660156 621.902344 L 424.660156 811.183594 L 295.105469 811.183594 L 295.105469 621.902344 " fill-opacity="1" fill-rule="nonzero"/><path fill="#a5c3de" d="M 442.65625 584.101562 L 572.210938 584.101562 L 572.210938 811.183594 L 442.65625 811.183594 L 442.65625 584.101562 " fill-opacity="1" fill-rule="nonzero"/><g clip-path="url(#id5)"><path fill="#a5c3de" d="M 590.203125 533.675781 L 719.757812 533.675781 L 719.757812 811.183594 L 590.203125 811.183594 L 590.203125 533.675781 " fill-opacity="1" fill-rule="nonzero"/></g></svg>